<?xml version="1.0" standalone="no"?>
<!DOCTYPE svg PUBLIC "-//W3C//DTD SVG 20010904//EN"
 "http://www.w3.org/TR/2001/REC-SVG-20010904/DTD/svg10.dtd">
<svg version="1.0" xmlns="http://www.w3.org/2000/svg"
 width="1024.000000pt" height="1024.000000pt" viewBox="0 0 1024.000000 1024.000000"
 preserveAspectRatio="xMidYMid meet">

<g transform="translate(0.000000,1024.000000) scale(0.100000,-0.100000)"
fill="#000000" stroke="none">
<path d="M10007 10052 c-16 -17 -17 -127 -17 -1380 0 -1349 0 -1362 20 -1382
11 -11 31 -20 45 -20 14 0 34 9 45 20 20 20 20 33 20 1383 0 1309 -1 1365 -18
1380 -25 22 -75 21 -95 -1z"/>
<path d="M9810 8580 c-20 -20 -20 -33 -20 -870 l0 -850 -49 0 c-34 0 -56 -6
-75 -21 l-26 -20 0 -479 0 -479 -469 -3 c-445 -3 -470 -4 -490 -22 -20 -18
-21 -28 -21 -278 0 -245 1 -259 20 -278 19 -19 33 -20 490 -20 l470 0 0 -1080
c0 -1261 -16 -1120 130 -1120 l90 0 0 -133 c0 -74 -3 -182 -7 -240 l-6 -107
-729 0 -728 0 0 254 c0 213 -2 257 -15 270 -27 26 -56 29 -84 8 l-26 -19 -3
-257 -2 -256 -276 0 -275 0 -24 -25 -25 -24 0 -275 0 -276 -256 -2 -257 -3
-19 -26 c-21 -28 -18 -57 8 -84 13 -13 57 -15 270 -15 l254 0 0 -730 0 -730
-67 0 c-38 0 -146 -3 -240 -7 l-173 -6 0 91 c0 149 141 132 -1120 132 l-1080
0 0 470 c0 457 -1 471 -20 490 -19 19 -33 20 -278 20 -250 0 -260 -1 -278 -21
-18 -20 -19 -45 -22 -490 l-3 -469 -479 0 -479 0 -20 -26 c-15 -19 -21 -41
-21 -75 l0 -49 -853 0 c-815 0 -855 -1 -870 -18 -23 -25 -21 -68 3 -92 20 -20
33 -20 870 -20 l850 0 0 -120 c0 -115 1 -122 25 -145 l24 -25 1854 0 1854 0
21 23 c19 20 22 35 22 110 l0 87 283 0 c229 0 287 3 303 14 18 13 19 32 24
273 l5 258 283 5 c266 5 285 6 298 24 12 17 14 104 14 523 l0 503 503 0 c419
0 506 2 523 14 18 13 19 32 24 298 l5 283 258 5 c241 5 260 6 273 24 11 16 14
74 14 303 l0 283 88 0 c80 0 91 2 110 23 l22 23 0 1853 0 1852 -25 24 c-23 24
-30 25 -145 25 l-120 0 0 853 c0 815 -1 855 -18 870 -25 23 -68 21 -92 -3z
m260 -2410 l0 -550 -465 0 c-452 0 -466 -1 -485 -20 -20 -20 -26 -65 -12 -86
21 -32 53 -34 506 -34 l456 0 0 -550 0 -550 -150 0 -150 0 0 489 0 490 -26 20
c-26 21 -36 21 -490 21 l-464 0 0 160 0 160 468 0 c407 0 470 2 490 16 l22 15
0 485 0 484 150 0 150 0 0 -550z m0 -2450 l0 -520 -150 0 -150 0 0 520 0 520
150 0 150 0 0 -520z m-765 -1505 l0 -230 -455 0 -455 0 -3 227 -2 227 97 4
c54 1 260 3 458 2 l360 0 0 -230z m-1047 -2 l-3 -228 -227 -3 -228 -2 0 230 0
230 230 0 230 0 -2 -227z m-3 -823 l0 -455 -230 0 -230 0 -4 35 c-1 19 0 225
4 458 l7 422 227 -2 226 -3 0 -455z m-3415 -404 c0 -454 0 -464 21 -490 l20
-26 490 0 489 0 0 -150 0 -150 -550 0 -550 0 0 456 c0 453 -2 485 -34 506 -21
14 -66 8 -86 -12 -19 -19 -20 -33 -20 -485 l0 -465 -550 0 -550 0 0 150 0 150
484 0 485 0 15 22 c14 20 16 83 16 490 l0 468 160 0 160 0 0 -464z m2200 -666
l0 -150 -520 0 -520 0 0 150 0 150 520 0 520 0 0 -150z"/>
<path d="M187 232 c-22 -25 -21 -75 1 -95 17 -16 127 -17 1380 -17 1349 0
1362 0 1382 20 11 11 20 31 20 45 0 14 -9 34 -20 45 -20 20 -33 20 -1383 20
-1309 0 -1365 -1 -1380 -18z"/>
</g>
</svg>
