<?xml version="1.0" standalone="no"?>
<!DOCTYPE svg PUBLIC "-//W3C//DTD SVG 20010904//EN"
 "http://www.w3.org/TR/2001/REC-SVG-20010904/DTD/svg10.dtd">
<svg version="1.0" xmlns="http://www.w3.org/2000/svg"
 width="1024.000000pt" height="1024.000000pt" viewBox="0 0 1024.000000 1024.000000"
 preserveAspectRatio="xMidYMid meet">

<g transform="translate(0.000000,1024.000000) scale(0.100000,-0.100000)"
fill="#000000" stroke="none">
<path d="M4923 5813 c-27 -65 -96 -232 -153 -370 -57 -139 -109 -253 -114
-253 -6 0 -562 111 -1236 246 -719 144 -1250 246 -1287 247 -84 1 -115 -21
-264 -193 l-122 -140 -331 0 -330 0 -201 200 c-170 169 -206 200 -230 200 -25
0 -72 -43 -322 -293 -252 -252 -293 -297 -293 -322 0 -25 41 -70 293 -322 250
-250 297 -293 322 -293 24 0 60 31 225 195 l196 195 334 0 335 0 116 -148
c133 -168 175 -203 252 -210 40 -3 335 52 1287 243 679 135 1242 248 1251 251
13 3 38 -50 124 -258 59 -145 127 -311 152 -371 l45 -107 157 2 156 3 147 365
c95 238 151 364 160 363 7 -1 569 -113 1248 -248 952 -191 1247 -246 1287
-243 77 7 118 41 251 210 l117 148 335 0 334 0 196 -195 c165 -164 201 -195
225 -195 25 0 72 43 322 293 252 252 293 297 293 322 0 25 -41 70 -293 322
-250 250 -297 293 -322 293 -24 0 -60 -31 -230 -200 l-201 -200 -330 0 -331 0
-122 140 c-146 169 -180 193 -259 193 -33 0 -570 -103 -1290 -247 -679 -136
-1237 -245 -1240 -241 -3 3 -72 169 -152 368 l-145 362 -156 3 -157 2 -49
-117z m445 -321 c78 -196 142 -364 142 -372 0 -8 -64 -176 -142 -373 l-143
-357 -99 2 -98 3 -149 363 -149 363 134 327 c74 180 142 344 150 365 l16 37
98 0 97 0 143 -358z m-4480 -135 l222 -223 -42 -41 -43 -41 -133 -4 c-127 -3
-135 -4 -153 -27 -24 -30 -24 -52 2 -85 18 -23 27 -26 82 -26 l62 0 -110 -110
c-60 -60 -114 -110 -120 -110 -6 0 -109 99 -230 220 l-220 220 225 225 c124
124 227 225 230 225 3 0 105 -100 228 -223z m8922 -2 l225 -225 -220 -220
c-121 -121 -224 -220 -230 -220 -6 0 -60 50 -120 110 l-110 110 62 0 c55 0 64
3 82 26 26 33 26 55 2 85 -18 23 -26 24 -153 27 l-133 4 -43 41 -42 41 222
223 c123 123 225 223 228 223 3 0 106 -101 230 -225z m-6600 -15 c580 -116
1064 -214 1074 -219 22 -8 -2073 -431 -2137 -431 -51 0 -81 30 -261 259 l-144
184 31 39 30 38 127 0 c70 0 141 5 157 10 52 19 63 82 21 117 -8 7 -51 13 -95
15 l-82 3 70 80 c62 72 116 115 143 115 6 0 485 -95 1066 -210z m4923 197 c16
-7 61 -50 102 -97 l74 -85 -82 -3 c-44 -2 -87 -8 -95 -15 -42 -35 -31 -98 21
-117 16 -5 87 -10 157 -10 l127 0 30 -38 31 -39 -144 -184 c-175 -223 -211
-259 -256 -259 -40 0 -2160 421 -2153 428 5 5 2120 430 2145 431 8 0 28 -5 43
-12z m-6533 -363 c-20 -38 -18 -53 12 -96 l19 -28 -207 0 -208 0 27 28 c32 34
34 70 6 106 l-20 26 194 0 195 0 -18 -36z m7391 10 c-28 -36 -26 -72 6 -106
l27 -28 -208 0 -207 0 19 28 c30 43 32 58 12 96 l-18 36 195 0 194 0 -20 -26z"/>
<path d="M5090 5727 c-20 -10 -45 -63 -137 -297 -61 -157 -112 -296 -112 -310
0 -14 51 -153 112 -310 98 -248 116 -287 140 -298 22 -11 32 -11 54 0 24 11
42 50 140 298 61 157 112 295 112 307 1 25 -215 583 -232 599 -20 20 -51 24
-77 11z m103 -432 l67 -175 -67 -175 c-38 -96 -70 -175 -73 -175 -3 0 -35 79
-73 175 l-67 175 67 175 c38 96 70 175 73 175 3 0 35 -79 73 -175z"/>
</g>
</svg>
